<svg xmlns="http://www.w3.org/2000/svg" width="674" height="150" style=""><rect id="backgroundrect" width="100%" height="100%" x="0" y="0" fill="none" stroke="none" class="" style=""/>
    
<g class="currentLayer" style=""><title>Layer 1</title><g fill="none" id="svg_1" class="" transform="">
        <path fill="#203AA9" d="M43.94025044899536,149.7679429567279 c6.356817240022394,0 12.613788239988253,-0.8320441213087904 18.76259484675586,-2.4961320836399636 c6.148806233052397,-1.6724088249081603 11.673579071479594,-4.559602109904404 16.5743188889968,-8.6615787338431 c4.90906021295018,-4.1019773713691166 8.844628180798964,-9.843081612199285 11.815027288701003,-17.206673426485395 c2.97039798675641,-7.371910714858245 4.459755869847868,-16.757367588522243 4.459755869847868,-28.164694006146647 c0,-16.96537896920745 -3.935568715279203,-30.136636692926686 -11.815027288701003,-39.522093566590684 c-7.8794585734218,-9.393777269096972 -19.68616322439857,-14.08650720078981 -35.44508186610301,-14.08650720078981 c-2.895513493571613,0 -6.390098821754293,0.4160220606543952 -10.467115006824486,1.2480662286775868 c-4.0770161850701925,0.8320441213087904 -8.079148811243613,1.9553037644901394 -12.02303717452537,3.344817276101111 c-0.782121515138936,0.274574567506205 -1.5476020525543177,0.5657901127359644 -2.279801054952202,0.8736462853312688 l-1.9719445553560888,0.8986076584877978 V0 H0 v125.98811528208898 c0,4.867457862070097 1.2064640646551084,8.827987389933014 3.6277125893982998,11.889910100167356 c2.4129279424526118,3.0619223365191317 5.699502263665295,5.458209301248189 9.843081612199285,7.197181663335357 c4.1435797222492,1.7389721752295628 8.844628180798964,2.953756822175251 14.094827596222785,3.652673775697224 c5.250197920562982,0.6905966515178008 10.708407221811171,1.0400551282787873 16.374627903744567,1.0400551282787873 zm-1.0317347328458126,-18.978925128013202 c-3.3198560898021867,0 -6.59810945500908,-0.24961326442127785 -9.85140200763226,-0.7321988155402792 c-3.2449721571902046,-0.49090603998077853 -5.974076807814299,-1.4976794930988646 -8.187313951872284,-3.028640567929628 c-2.204916561767405,-1.5226408662553936 -3.311535694369212,-3.677634961996148 -3.311535694369212,-6.464983128081485 V64.24212293543405 c3.594430633951191,-2.0801106302727845 7.488396998350311,-3.6110717985323504 11.706861400641912,-4.584562922488118 c4.218463654861182,-0.9734914976709774 8.120750788408486,-1.464397724509361 11.715181048644467,-1.464397724509361 c6.489943566949989,0 11.815027288701003,1.3978340004727485 15.958605142374154,4.176861303981099 c4.1435797222492,2.7790275837947576 7.25542443136618,6.814441231127262 9.3188937102002,12.097921480852563 c2.0801106302727845,5.283479876010091 3.1201651045499545,11.815027288701003 3.1201651045499545,19.602959270068823 c0,6.822761626560236 -0.8320441213087904,12.971568233327844 -2.4961320836399636,18.471379511740906 c-1.655767847184606,5.491490882980088 -4.692728810547209,9.901325127660527 -9.110883076945413,13.237822382043873 c-4.426474288115969,3.336496880668136 -10.716727617244146,5.008905705576296 -18.862439591951556,5.008905705576296 zM138.82655419876755,25.23589687540948 V5.42492771951629 h-23.214030321170753 v19.81097065075403 h23.214030321170753 zm-0.6157126721914175,121.40355647046817 l-0.2080110303271976,-104.08871491363243 H116.23656399909578 v104.08871491363243 h21.96596502678119 zm47.62620356413322,0 V2.296442032675756 h-21.549943760271617 v144.34300925776824 h21.549943760271617 zm47.135297243866034,0 V2.296442032675756 h-21.549943760271617 v144.34300925776824 H232.97233976528332 z" id="svg_2" transform=""/>
        <path fill="#F63F3F" d="M309.170945680944,149.7679429567279 c7.762972289929735,0 14.752141825149465,-0.6489944407809212 20.96751159538087,-1.93866297362419 c6.20704900108322,-1.2979887881330399 11.781744959538685,-2.97039798675641 16.724086006790344,-5.017226474724481 v-19.82760994675914 c-2.5460552036682316,1.2231049489498602 -5.574695584740255,2.487811875064594 -9.110883076945413,3.777480454622264 c-3.5278670967721837,1.2979887881330399 -7.371910714858245,2.354684800706579 -11.540451997121579,3.1700882245782225 c-4.160220513115149,0.8237236324470132 -8.644938690407571,1.231425344382835 -13.437511872435266,1.231425344382835 c-10.733368408110096,0 -18.845797306224767,-2.97039798675641 -24.353931969792484,-8.902872443690626 c-4.717690370561343,-5.075469242755304 -7.405192296590144,-12.189446578045704 -8.087468459246168,-21.32529009385962 l-0.041602207817229564,-0.6489944407809212 h74.6093954393541 c0.13312706267941454,-10.550318961154233 -1.0816572923012657,-19.9191357913827 -3.6443530065490393,-28.089807457528195 l-0.9069281473495749,-2.687502673459221 c-3.1700882245782225,-8.78638541276814 -8.2871594444984,-15.642428621060276 -15.351213286045322,-20.551490328871296 C327.94187736660206,44.056735985057 318.697873194742,41.60220438372107 307.27388356333904,41.60220438372107 c-15.52594308499863,0 -27.623862323559933,4.601204087069277 -36.31040299113238,13.803612261207832 C262.2769458840776,64.6082263139283 257.933669570848,78.12894363555415 257.933669570848,95.99292531152287 c0,11.582053974286453 2.0801106302727845,21.400173652756393 6.240330956530329,29.446040882268107 c4.168540908548124,8.03754683407874 10.10101536548234,14.10314799165576 17.789102601654463,18.196804967591902 c7.6964083790355176,4.085336580503167 16.765689478816057,6.132165442186448 27.2078425519112,6.132165442186448 zm23.114184081114217,-65.43194845151447 h-51.44528898564204 l0.09152485778183506,-0.7405193511164576 c0.4160220606543952,-2.953756822175251 0.9818118931039521,-5.591336375606204 1.7223313843636134,-7.904419012290305 l0.582430950316315,-1.680729220341135 c2.046828674825676,-5.383326116066627 5.042187287308195,-9.202407426708135 8.994396793453348,-11.448927647358857 c3.9522095061451523,-2.2465189126474883 8.753103831036242,-3.3780992315482194 14.394363326670714,-3.3780992315482194 c8.753103831036242,0 15.176484981952854,2.4212481510279815 19.270141957888995,7.263745574229574 c3.153447059997063,3.7192369391610214 5.216917086261503,9.119203472378388 6.190408583932481,16.18325880878615 l0.19969061153702228,1.705690406640059 zm81.54032370140385,65.43194845151447 c9.3188937102002,0 17.63933398900008,-0.6489944407809212 24.98628501242024,-1.93866297362419 c7.338628385695927,-1.2979887881330399 13.154616932853287,-3.75251889460813 17.46460568490761,-7.3635903194252705 c4.301667982906139,-3.6110717985323504 6.456661985218091,-8.761424226469217 6.456661985218091,-15.442737635808044 V75.96562886409401 c0,-5.183635130814395 -0.7738010262771589,-9.684993351542346 -2.329723614407655,-13.495754640466089 c-1.5559225414160949,-3.827402827220112 -3.702596148295072,-7.055734193544367 -6.456661985218091,-9.718274933274245 c-2.745745628347649,-2.662541300302692 -5.8908721060541325,-4.767612743159191 -9.418739202826316,-6.3318553062930505 c-3.5361874922051584,-1.5725633322820443 -7.305347551394448,-2.7291048374816995 -11.332440616436372,-3.4779443504591256 c-4.01877304332416,-0.7488397465494323 -8.00426450491642,-1.1232593628949417 -11.956474011061573,-1.1232593628949417 c-8.045867229511714,0 -15.850440001745483,0.782121515138936 -23.397080515557036,2.3463645921312093 c-7.554960909244528,1.5725633322820443 -13.312705940940646,3.6443530065490393 -17.256595799083243,6.240330956530329 v20.035621327444346 c4.093656975936142,-3.2699333434891287 9.3188937102002,-5.824308942590335 15.66739130222004,-7.671446445306174 c6.34849684458942,-1.8304970855650993 12.488981561063213,-2.7540660237806236 18.421457139143058,-2.7540660237806236 c8.320441026230299,0 14.74382142971649,1.6640882426175807 19.26182156245602,5.008905705576296 c4.51799975902432,3.336496880668136 6.781159649395363,8.619976756678227 6.781159649395363,15.842119606312508 l-0.008320442147375928,9.69331374697532 l-1.4976794930988646,-0.8320441213087904 c-0.6073922767584428,-0.31617677824308466 -1.2397457398158096,-0.6240331610531946 -1.888740040453527,-0.9235690316443268 l-2.0052263239455925,-0.8819667741930459 c-3.4613035595931763,-1.4311161427774621 -7.338628385695927,-2.5543755991012063 -11.64861713775025,-3.3697788361152448 c-4.301667982906139,-0.8237236324470132 -9.135845010674757,-1.231425344382835 -14.502528467299385,-1.231425344382835 c-8.045867229511714,0 -14.960153205834672,1.231425344382835 -20.75117981926269,3.6859553574291226 c-5.7827069654254615,2.4462097110421155 -10.234142439840355,6.132165442186448 -13.33766712723957,11.041225281421418 s-4.6594468551001,11.174351608349014 -4.6594468551001,18.804196823920734 c0,6.4067396126202425 1.2397457398158096,11.765103421242316 3.7109169174432566,16.05845138243069 c2.4711710841986445,4.293347213757954 5.7827069654254615,7.663126049873199 9.951247500258376,10.11765615634829 c4.160220513115149,2.45453010647509 8.78638541276814,4.193502468562258 13.861855029238654,5.216917086261503 c5.083789264473069,1.0234144308416404 10.375589909631344,1.5309611682595659 15.883721583477382,1.5309611682595659 zm2.537734434520047,-16.765689478816057 c-3.9522095061451523,0 -7.729689960767416,-0.582430950316315 -11.324120968433817,-1.7389721752295628 c-3.602751029384166,-1.164861713775025 -6.59810945500908,-2.995359173055334 -9.002717188886322,-5.5247732121424065 c-2.3962867778714525,-2.5210936436540976 -3.594430633951191,-5.824308942590335 -3.594430633951191,-9.909644775663082 c0,-5.458209301248189 2.0801106302727845,-9.543545134320937 6.240330956530329,-12.272650532375451 c4.168540908548124,-2.7291048374816995 10.275745164435648,-4.085336580503167 18.321610899086522,-4.085336580503167 c6.073922300440415,0 11.715181048644467,0.7155579312455274 16.93209738747555,2.146673606878977 c2.2465189126474883,0.6073922767584428 4.2850271920401894,1.281347903838288 6.132165442186448,2.0052263239455925 l0.6406739986335452,0.274574567506205 v19.90249500051675 c0,3.5611486785040825 -1.5975247054385733,5.95743564323314 -4.80089432489109,7.197181663335357 l-1.1232593628949417,0.3660994077701396 c-3.9522095061451523,1.089977781163043 -10.092695717479785,1.6391268694610517 -18.421457139143058,1.6391268694610517 zM519.5782295253593,149.7679429567279 c6.914286723753378,0 13.620562066821549,-1.089977781163043 20.118826776634933,-3.2699333434891287 c6.489943566949989,-2.179955562326086 11.748462630376366,-5.657900286500421 15.767236047415736,-10.433832677662167 c4.027093812472344,-4.767612743159191 6.107204255887524,-10.966340975094226 6.248651351963304,-18.60450733352934 c0,-5.724463449964219 -1.0234144308416404,-10.358949118765395 -3.0702429188097113,-13.895136610970553 c-2.046828674825676,-3.5528286567863177 -4.692728810547209,-6.4067396126202425 -7.937701341452623,-8.595015570379303 c-3.2449721571902046,-2.179955562326086 -6.772839253962388,-3.8523640135190362 -10.591921685749526,-5.008905705576296 l-11.0079429522591,-3.3780992315482194 c-3.8107620363541628,-1.0816572923012657 -7.371910714858245,-2.179955562326086 -10.691766430945222,-3.2699333434891287 c-3.311535694369212,-1.0816572923012657 -5.990717224965039,-2.587657180833105 -8.045867229511714,-4.493038199010186 c-2.046828674825676,-1.913701600467661 -3.0702429188097113,-4.501358594443161 -3.0702429188097113,-7.77129268536271 c0,-3.8190828055023474 1.8304970855650993,-6.714596485931565 5.508132047561247,-8.694861063005419 c3.6693145665631732,-1.9719445553560888 8.253877115336081,-2.9620777781810403 13.762010284042958,-2.9620777781810403 c5.924153687786031,0 11.14939116948051,0.956850706805028 15.66739130222004,2.8622319118397144 c4.51799975902432,1.913701600467661 9.3188937102002,4.160220513115149 14.394363326670714,6.747877320233044 l-0.2080110303271976,-18.40481485341627 c-4.51799975902432,-2.3130826366841006 -9.144164658677312,-4.293347213757954 -13.87017542467163,-5.924153687786031 c-4.726010765994317,-1.6391268694610517 -10.833214648166631,-2.5210936436540976 -18.313290503653548,-2.662541300302692 c-4.51799975902432,0 -9.135845010674757,0.582430950316315 -13.87017542467163,1.7389721752295628 c-4.726010765994317,1.164861713775025 -9.027678375185246,2.995359173055334 -12.91332546529702,5.5247732121424065 c-3.87732557353317,2.5210936436540976 -7.022452611812469,5.791027360858436 -9.418739202826316,9.81812117333078 c-2.404607547019637,4.010453021606395 -3.602751029384166,8.886230905394257 -3.602751029384166,14.610695102788895 c0,5.183635130814395 0.956850706805028,9.543545134320937 2.8622319118397144,13.08805376938949 c1.9053812050346863,3.544507887638133 4.4431150789819185,6.440021194352141 7.6215240727083255,8.686540667572444 c3.1700882245782225,2.2465189126474883 6.6646733659032975,4.027093812472344 10.483755797690435,5.325082600605384 c3.802441640921188,1.2896682058424602 7.613203677275351,2.4129279424526118 11.423965713629514,3.3697788361152448 c3.6693145665631732,1.2231049489498602 7.205502058768332,2.45453010647509 10.591921685749526,3.677634961996148 c3.386419626981194,1.231425344382835 6.173767045636112,2.7291048374816995 8.362043750825592,4.493038199010186 c2.1882761446166654,1.7805743392520412 3.2782541126373133,4.235104445727131 3.2782541126373133,7.371910714858245 c0,3.677634961996148 -1.7306517797965881,6.73955692480007 -5.183635130814395,9.19408777870558 c-3.4613035595931763,2.45453010647509 -8.220595533604182,3.6859553574291226 -14.294517086614178,3.6859553574291226 c-4.80089432489109,0 -9.135845010674757,-0.48258564454780384 -13.021490605925692,-1.4311161427774621 c-3.87732557353317,-0.956850706805028 -7.588242490976427,-2.2881210766699667 -11.11610884031819,-3.9938118570252357 c-3.5278670967721837,-1.6973698243494795 -7.122297357008165,-3.6443530065490393 -10.791612671001758,-5.824308942590335 v20.243634202990393 c5.075469242755304,2.321403405832285 10.267424021572253,4.2600656320260555 15.559224666730529,5.824308942590335 c5.291800271443066,1.5725633322820443 11.748462630376366,2.354684800706579 19.36998670308469,2.354684800706579 zm108.64000410240806,0 c7.762972289929735,0 14.74382142971649,-0.6489944407809212 20.959191199947895,-1.93866297362419 c6.20704900108322,-1.2979887881330399 11.781744959538685,-2.97039798675641 16.724086006790344,-5.017226474724481 v-19.82760994675914 c-2.537734434520047,1.2231049489498602 -5.574695584740255,2.487811875064594 -9.102562681512438,3.777480454622264 c-3.5278670967721837,1.2979887881330399 -7.38023111029122,2.354684800706579 -11.540451997121579,3.1700882245782225 c-4.160220513115149,0.8237236324470132 -8.653258338410126,1.231425344382835 -13.44583226786824,1.231425344382835 c-10.733368408110096,0 -18.845797306224767,-2.97039798675641 -24.34561157435951,-8.902872443690626 c-4.717690370561343,-5.075469242755304 -7.413512692023119,-12.189446578045704 -8.087468459246168,-21.32529009385962 l-0.041602207817229564,-0.6489944407809212 H673.9557373258322 c0.1248066088534383,-10.550318961154233 -1.089977781163043,-19.9191357913827 -3.652673775697224,-28.089807457528195 l-0.8986076584877978,-2.687502673459221 c-3.178408620011197,-8.78638541276814 -8.295480587361794,-15.642428621060276 -15.351213286045322,-20.551490328871296 c-7.055734193544367,-4.90906021295018 -16.30806474028077,-7.355269923992296 -27.732030453910284,-7.355269923992296 c-15.52594308499863,0 -27.632185708714587,4.601204087069277 -36.31040299113238,13.803612261207832 c-8.686540667572444,9.202407426708135 -13.021490605925692,22.731444396336542 -13.021490605925692,40.58711315117648 c0,11.582053974286453 2.0801106302727845,21.400173652756393 6.240330956530329,29.446040882268107 c4.160220513115149,8.03754683407874 10.092695717479785,14.10314799165576 17.789102601654463,18.196804967591902 c7.688087983602543,4.085336580503167 16.757367588522243,6.132165442186448 27.2078425519112,6.132165442186448 zm23.12250597140803,-65.43194845151447 h-51.461929776507986 l0.09984529408991083,-0.7405193511164576 c0.407701571792618,-2.953756822175251 0.9818118931039521,-5.591336375606204 1.7140108020730338,-7.904419012290305 l0.582430950316315,-1.680729220341135 c2.046828674825676,-5.383326116066627 5.05050805645638,-9.202407426708135 9.002717188886322,-11.448927647358857 c3.9522095061451523,-2.2465189126474883 8.753103831036242,-3.3780992315482194 14.394363326670714,-3.3780992315482194 c8.753103831036242,0 15.176484981952854,2.4212481510279815 19.270141957888995,7.263745574229574 c3.1451266645640885,3.7192369391610214 5.208595943398109,9.119203472378388 6.190408583932481,16.18325880878615 l0.2080110303271976,1.705690406640059 z" id="svg_3" transform=""/>
    </g></g></svg>